<svg width="227" height="98" viewBox="0 0 227 98" xmlns="http://www.w3.org/2000/svg"><g fill="#2a80eb" fill-rule="evenodd"><path d="M56.944 83.435c0 2.13-1.95 3.864-4.344 3.864-2.4 0-4.348-1.734-4.348-3.864V0H36.724v83.435c0 7.79 7.108 14.109 15.876 14.109 8.765 0 15.87-6.318 15.87-14.11V0H56.944v83.435zM138.262 83.435c0 2.13-1.95 3.864-4.345 3.864-2.4 0-4.347-1.734-4.347-3.864V0H118.04v83.435c0 7.79 7.108 14.109 15.876 14.109 8.765 0 15.87-6.318 15.87-14.11V0h-11.525v83.435zM196.956 83.435c0 2.13-1.95 3.864-4.345 3.864-2.4 0-4.347-1.734-4.347-3.864V0h-11.528v83.435c0 7.79 7.107 14.109 15.875 14.109 8.766 0 15.87-6.318 15.87-14.11V0h-11.525v83.435zM10.493 83.94c0 3.11 1.748 4.664 5.246 4.664h13.116v9.327H10.493C2.623 97.93 0 93.267 0 88.604V0h10.493v83.94zM91.81 83.94c0 3.11 1.749 4.664 5.246 4.664h13.116v9.327H91.81c-7.87 0-10.493-4.664-10.493-9.327V0H91.81v83.94zM216.083 0h10.492v97.93h-10.492V0z"></path></g></svg>